<svg width="147" height="24" viewBox="0 0 147 24" fill="none" xmlns="http://www.w3.org/2000/svg">
<path d="M9.10021 23.15C7.72022 23.15 6.48022 22.84 5.38021 22.22C4.28021 21.58 3.41022 20.66 2.77021 19.46C2.13021 18.26 1.81021 16.81 1.81021 15.11C1.81021 13.39 2.13021 11.94 2.77021 10.76C3.43021 9.56 4.31021 8.65 5.41021 8.03C6.51022 7.41 7.74022 7.1 9.10021 7.1C10.6002 7.1 11.9402 7.44 13.1202 8.12C14.3202 8.78 15.2602 9.71 15.9402 10.91C16.6202 12.11 16.9602 13.51 16.9602 15.11C16.9602 16.69 16.6202 18.09 15.9402 19.31C15.2602 20.51 14.3202 21.45 13.1202 22.13C11.9402 22.81 10.6002 23.15 9.10021 23.15ZM0.970215 23V0.739998H3.10021V11.9L2.80022 15.08L3.01022 18.26V23H0.970215ZM8.95021 21.26C10.0702 21.26 11.0702 21.01 11.9502 20.51C12.8302 19.99 13.5302 19.27 14.0502 18.35C14.5702 17.41 14.8302 16.33 14.8302 15.11C14.8302 13.87 14.5702 12.79 14.0502 11.87C13.5302 10.95 12.8302 10.24 11.9502 9.74C11.0702 9.22 10.0702 8.96 8.95021 8.96C7.83021 8.96 6.82021 9.22 5.92021 9.74C5.04021 10.24 4.34021 10.95 3.82021 11.87C3.32021 12.79 3.07021 13.87 3.07021 15.11C3.07021 16.33 3.32021 17.41 3.82021 18.35C4.34021 19.27 5.04021 19.99 5.92021 20.51C6.82021 21.01 7.83021 21.26 8.95021 21.26Z" fill="#FFFFFF"/>
<path d="M21.3022 23V7.25H23.4322V23H21.3022ZM22.3822 3.77C21.9422 3.77 21.5722 3.62 21.2722 3.32C20.9722 3.02 20.8222 2.66 20.8222 2.24C20.8222 1.82 20.9722 1.47 21.2722 1.19C21.5722 0.889998 21.9422 0.739998 22.3822 0.739998C22.8222 0.739998 23.1922 0.879998 23.4922 1.16C23.7922 1.44 23.9422 1.79 23.9422 2.21C23.9422 2.65 23.7922 3.02 23.4922 3.32C23.2122 3.62 22.8422 3.77 22.3822 3.77Z" fill="#FFFFFF"/>
<path d="M35.6289 23.15C34.1289 23.15 32.7789 22.81 31.5789 22.13C30.3989 21.45 29.4689 20.51 28.7889 19.31C28.1089 18.09 27.7689 16.69 27.7689 15.11C27.7689 13.51 28.1089 12.11 28.7889 10.91C29.4689 9.71 30.3989 8.78 31.5789 8.12C32.7789 7.44 34.1289 7.1 35.6289 7.1C37.0089 7.1 38.2389 7.41 39.3189 8.03C40.4189 8.65 41.2889 9.56 41.9289 10.76C42.5889 11.94 42.9189 13.39 42.9189 15.11C42.9189 16.81 42.5989 18.26 41.9589 19.46C41.3189 20.66 40.4489 21.58 39.3489 22.22C38.2689 22.84 37.0289 23.15 35.6289 23.15ZM35.7789 21.26C36.8989 21.26 37.8989 21.01 38.7789 20.51C39.6789 19.99 40.3789 19.27 40.8789 18.35C41.3989 17.41 41.6589 16.33 41.6589 15.11C41.6589 13.87 41.3989 12.79 40.8789 11.87C40.3789 10.95 39.6789 10.24 38.7789 9.74C37.8989 9.22 36.8989 8.96 35.7789 8.96C34.6789 8.96 33.6889 9.22 32.8089 9.74C31.9289 10.24 31.2289 10.95 30.7089 11.87C30.1889 12.79 29.9289 13.87 29.9289 15.11C29.9289 16.33 30.1889 17.41 30.7089 18.35C31.2289 19.27 31.9289 19.99 32.8089 20.51C33.6889 21.01 34.6789 21.26 35.7789 21.26ZM41.7189 23V18.26L41.9289 15.08L41.6289 11.9V0.739998H43.7589V23H41.7189Z" fill="#FFFFFF"/>
<path d="M62.8609 2H68.8009V23H62.8609V2ZM54.7609 23H48.8209V2H54.7609V23ZM63.2809 14.81H54.3409V9.89H63.2809V14.81Z" fill="#FFFFFF"/>
<path d="M80.8808 23.27C79.1008 23.27 77.5208 22.91 76.1408 22.19C74.7608 21.47 73.6708 20.48 72.8708 19.22C72.0908 17.94 71.7008 16.48 71.7008 14.84C71.7008 13.2 72.0908 11.75 72.8708 10.49C73.6708 9.23 74.7608 8.25 76.1408 7.55C77.5208 6.83 79.1008 6.47 80.8808 6.47C82.6608 6.47 84.2408 6.83 85.6208 7.55C87.0208 8.25 88.1108 9.23 88.8908 10.49C89.6708 11.75 90.0608 13.2 90.0608 14.84C90.0608 16.48 89.6708 17.94 88.8908 19.22C88.1108 20.48 87.0208 21.47 85.6208 22.19C84.2408 22.91 82.6608 23.27 80.8808 23.27ZM80.8808 18.74C81.5408 18.74 82.1208 18.59 82.6208 18.29C83.1408 17.99 83.5508 17.55 83.8508 16.97C84.1508 16.37 84.3008 15.66 84.3008 14.84C84.3008 14.02 84.1508 13.33 83.8508 12.77C83.5508 12.19 83.1408 11.75 82.6208 11.45C82.1208 11.15 81.5408 11 80.8808 11C80.2408 11 79.6608 11.15 79.1408 11.45C78.6408 11.75 78.2308 12.19 77.9108 12.77C77.6108 13.33 77.4608 14.02 77.4608 14.84C77.4608 15.66 77.6108 16.37 77.9108 16.97C78.2308 17.55 78.6408 17.99 79.1408 18.29C79.6608 18.59 80.2408 18.74 80.8808 18.74Z" fill="#FFFFFF"/>
<path d="M99.5413 23.27C98.2213 23.27 97.0313 23.01 95.9713 22.49C94.9313 21.97 94.1113 21.16 93.5113 20.06C92.9313 18.94 92.6413 17.53 92.6413 15.83V6.74H98.3413V14.9C98.3413 16.16 98.5713 17.06 99.0313 17.6C99.5113 18.14 100.181 18.41 101.041 18.41C101.601 18.41 102.111 18.28 102.571 18.02C103.031 17.76 103.401 17.35 103.681 16.79C103.961 16.21 104.101 15.47 104.101 14.57V6.74H109.801V23H104.371V18.41L105.421 19.7C104.861 20.9 104.051 21.8 102.991 22.4C101.931 22.98 100.781 23.27 99.5413 23.27Z" fill="#FFFFFF"/>
<path d="M119.383 23.27C118.003 23.27 116.653 23.11 115.333 22.79C114.033 22.47 112.983 22.07 112.183 21.59L113.893 17.69C114.653 18.15 115.543 18.52 116.563 18.8C117.583 19.06 118.583 19.19 119.563 19.19C120.523 19.19 121.183 19.09 121.543 18.89C121.923 18.69 122.113 18.42 122.113 18.08C122.113 17.76 121.933 17.53 121.573 17.39C121.233 17.23 120.773 17.11 120.193 17.03C119.633 16.95 119.013 16.86 118.333 16.76C117.653 16.66 116.963 16.53 116.263 16.37C115.583 16.19 114.953 15.93 114.373 15.59C113.813 15.23 113.363 14.75 113.023 14.15C112.683 13.55 112.513 12.79 112.513 11.87C112.513 10.83 112.813 9.91 113.413 9.11C114.033 8.29 114.933 7.65 116.113 7.19C117.293 6.71 118.733 6.47 120.433 6.47C121.573 6.47 122.723 6.59 123.883 6.83C125.063 7.05 126.053 7.39 126.853 7.85L125.143 11.72C124.343 11.26 123.543 10.95 122.743 10.79C121.943 10.61 121.183 10.52 120.463 10.52C119.503 10.52 118.823 10.63 118.423 10.85C118.043 11.07 117.853 11.34 117.853 11.66C117.853 11.98 118.023 12.23 118.363 12.41C118.703 12.57 119.153 12.7 119.713 12.8C120.293 12.88 120.923 12.97 121.603 13.07C122.283 13.15 122.963 13.28 123.643 13.46C124.343 13.64 124.973 13.91 125.533 14.27C126.113 14.61 126.573 15.08 126.913 15.68C127.253 16.26 127.423 17.01 127.423 17.93C127.423 18.93 127.113 19.83 126.493 20.63C125.893 21.43 124.993 22.07 123.793 22.55C122.613 23.03 121.143 23.27 119.383 23.27Z" fill="#FFFFFF"/>
<path d="M138.399 23.27C136.479 23.27 134.799 22.91 133.359 22.19C131.939 21.45 130.829 20.45 130.029 19.19C129.249 17.91 128.859 16.46 128.859 14.84C128.859 13.22 129.239 11.78 129.999 10.52C130.779 9.24 131.849 8.25 133.209 7.55C134.569 6.83 136.099 6.47 137.799 6.47C139.399 6.47 140.859 6.8 142.179 7.46C143.499 8.1 144.549 9.05 145.329 10.31C146.109 11.57 146.499 13.1 146.499 14.9C146.499 15.1 146.489 15.33 146.469 15.59C146.449 15.85 146.429 16.09 146.409 16.31H133.539V13.31H143.379L141.219 14.15C141.239 13.41 141.099 12.77 140.799 12.23C140.519 11.69 140.119 11.27 139.599 10.97C139.099 10.67 138.509 10.52 137.829 10.52C137.149 10.52 136.549 10.67 136.029 10.97C135.529 11.27 135.139 11.7 134.859 12.26C134.579 12.8 134.439 13.44 134.439 14.18V15.05C134.439 15.85 134.599 16.54 134.919 17.12C135.259 17.7 135.739 18.15 136.359 18.47C136.979 18.77 137.719 18.92 138.579 18.92C139.379 18.92 140.059 18.81 140.619 18.59C141.199 18.35 141.769 17.99 142.329 17.51L145.329 20.63C144.549 21.49 143.589 22.15 142.449 22.61C141.309 23.05 139.959 23.27 138.399 23.27Z" fill="#FFFFFF"/>
</svg>
