<svg width="26" height="32" viewBox="0 0 26 32" fill="none" xmlns="http://www.w3.org/2000/svg">
<path d="M11.9328 32V29.1821C7.50249 28.8219 3.52488 27.4194 0 24.9747L3.54105 21.6164C6.25746 23.495 9.05473 24.6144 11.9328 24.9747V17.4861C8.27861 16.7913 5.59453 15.8778 3.8806 14.7455C2.19901 13.6132 1.35821 11.9405 1.35821 9.72738C1.35821 7.48854 2.32836 5.66144 4.26866 4.24608C6.24129 2.83072 8.79602 2.05871 11.9328 1.93004V0H15.0373V1.96864C18.5945 2.17451 21.9577 3.13953 25.1269 4.86369L21.9739 8.41496C19.8396 7.20547 17.5274 6.45919 15.0373 6.17612V13.4331H15.1828C18.9017 14.1279 21.6343 15.0671 23.3806 16.2509C25.1269 17.4347 26 19.1588 26 21.4234C26 23.6622 24.9975 25.4893 22.9925 26.9047C20.9876 28.3201 18.3358 29.0921 15.0373 29.2207V32H11.9328ZM15.0373 25.0905C16.5896 24.9618 17.8184 24.6015 18.7239 24.0097C19.6294 23.4178 20.0821 22.6715 20.0821 21.7708C20.0821 20.8701 19.7264 20.1624 19.0149 19.6478C18.3035 19.1074 16.9776 18.6055 15.0373 18.1423V25.0905ZM11.9328 6.06031C10.4776 6.16325 9.3296 6.51066 8.48881 7.10253C7.68035 7.66868 7.27612 8.38923 7.27612 9.26417C7.27612 10.1134 7.5995 10.7953 8.24627 11.31C8.89304 11.799 10.1219 12.275 11.9328 12.7382V6.06031Z" fill="#D98AFE"/>
</svg>
