<svg width="27" height="32" viewBox="0 0 27 32" fill="none" xmlns="http://www.w3.org/2000/svg">
<mask id="path-1-inside-1_108_71" fill="white">
<path d="M0 0H16V32H0V0Z"/>
</mask>
<path d="M0 0V-2H-2V0H0ZM0 32H-2V34H0V32ZM0 2H16V-2H0V2ZM16 30H0V34H16V30ZM2 32V0H-2V32H2Z" fill="white" mask="url(#path-1-inside-1_108_71)"/>
<path d="M26.7071 16.7071C27.0976 16.3166 27.0976 15.6834 26.7071 15.2929L20.3431 8.92893C19.9526 8.53841 19.3195 8.53841 18.9289 8.92893C18.5384 9.31946 18.5384 9.95262 18.9289 10.3431L24.5858 16L18.9289 21.6569C18.5384 22.0474 18.5384 22.6805 18.9289 23.0711C19.3195 23.4616 19.9526 23.4616 20.3431 23.0711L26.7071 16.7071ZM8 17L26 17V15L8 15V17Z" fill="white"/>
</svg>
