<svg width="80" height="80" viewBox="0 0 80 80" fill="none" xmlns="http://www.w3.org/2000/svg">
<rect width="80" height="80" rx="40" fill="#111111"/>
<path d="M60 40C60 35.061 58.1725 30.2967 54.8695 26.6248C51.5665 22.9528 47.0217 20.6328 42.1103 20.1116C37.1989 19.5905 32.2684 20.9051 28.2684 23.8022C24.2683 26.6993 21.4818 30.974 20.4453 35.803C19.4089 40.632 20.1959 45.6737 22.6548 49.9571C25.1137 54.2404 29.0705 57.4625 33.7632 59.0027C38.4558 60.5429 43.5524 60.2922 48.0713 58.299C52.5902 56.3058 56.2118 52.711 58.2385 48.2071L40 40H60Z" fill="white" fill-opacity="0.5"/>
<rect x="47" y="31" width="4" height="4" rx="2" fill="#111111"/>
</svg>
