<svg width="80" height="42" viewBox="0 0 80 42" fill="none" xmlns="http://www.w3.org/2000/svg">
<rect width="80" height="42" rx="21" fill="#153018"/>
<path d="M60 21C60 18.407 58.1725 15.9058 54.8695 13.978C51.5665 12.0502 47.0217 10.8322 42.1103 10.5586C37.1989 10.285 32.2684 10.9752 28.2684 12.4962C24.2683 14.0171 21.4818 16.2614 20.4453 18.7966C19.4089 21.3318 20.1959 23.9787 22.6548 26.2275C25.1137 28.4762 29.0705 30.1678 33.7632 30.9764C38.4558 31.785 43.5524 31.6534 48.0713 30.607C52.5902 29.5605 56.2118 27.6733 58.2385 25.3087L40 21H60Z" fill="#39FF71"/>
<rect x="47" y="16.2749" width="4" height="2.1" rx="1.05" fill="#153018"/>
</svg>
